<?xml version="1.0" encoding="UTF-8" standalone="no"?>
<!-- Created with Inkscape (http://www.inkscape.org/) -->

<svg
   version="1.1"
   id="svg1"
   width="500"
   height="500"
   viewBox="0 0 500 500"
   xmlns="http://www.w3.org/2000/svg"
   xmlns:svg="http://www.w3.org/2000/svg">
  <defs
     id="defs1" />
  <g
     id="g1">
    <path
       style="fill:#f2f2f2"
       d="m 124.76509,454.45408 c -2.06755,-2.95184 -1.97348,-7.09033 0.20599,-9.06272 0.96947,-0.87737 4.60062,-2.86245 8.06921,-4.4113 l 6.30652,-2.8161 -6.3862,-4.68907 C 108.08396,415.20917 86.067572,389.14066 71.055916,360.17659 56.128097,331.37428 48.192408,301.91239 46.530635,269.12448 c -0.584187,-11.52641 -0.505122,-12.26501 1.530877,-14.30101 2.610388,-2.61039 6.173734,-2.75547 9.118132,-0.37124 1.983996,1.60654 2.278663,3.14693 3.09423,16.17531 1.115248,17.81566 3.152417,30.09232 7.517399,45.30233 7.572927,26.38826 20.96177,51.92622 38.342317,73.13434 10.31488,12.58646 36.68395,36.6699 38.33848,35.01537 0.28496,-0.28497 -0.32935,-3.30471 -1.36514,-6.71055 -1.03579,-3.40584 -1.8867,-7.65494 -1.8909,-9.44244 -0.009,-3.63967 2.92033,-7.25 5.88158,-7.25 4.50329,0 6.16866,3.11969 11.1804,20.94383 4.23728,15.06982 4.72292,17.7129 3.65814,19.90954 -0.93926,1.93771 -4.60658,4.0149 -15.60678,8.83976 -15.67083,6.87348 -19.14925,7.5323 -21.56428,4.08436 z m 225.4433,-11.77749 c -2.66213,-2.66213 -2.53051,-6.58503 0.31187,-9.29545 1.27153,-1.2125 6.42692,-5.05769 11.45643,-8.54487 31.71508,-21.98945 55.88385,-53.09033 71.24807,-91.68353 4.32494,-10.86377 10.57987,-35.90806 11.85738,-47.47615 2.03271,-18.40656 2.09889,-20.00122 0.82914,-19.978 -0.66159,0.0121 -4.79573,2.26209 -9.18698,5 -4.39126,2.7379 -8.92531,4.978 -10.07569,4.978 -2.80511,0 -6.44022,-4.03017 -6.44022,-7.14014 0,-3.31807 2.23467,-5.23495 16.52487,-14.17486 15.80589,-9.88812 16.58892,-10.22773 19.68083,-8.53571 1.35752,0.74289 7.51979,6.64233 13.69394,13.10986 10.00743,10.48297 11.19178,12.10014 10.91304,14.90113 -0.19988,2.0085 -1.28178,3.86225 -2.99899,5.13855 -2.35471,1.75011 -3.06057,1.84155 -5.71814,0.74075 -1.6675,-0.6907 -4.65129,-3.23217 -6.63064,-5.6477 -1.97934,-2.41553 -3.94807,-4.39188 -4.37493,-4.39188 -0.42687,0 -1.3356,5.2875 -2.0194,11.75 -2.82444,26.6934 -9.71574,50.55757 -21.5857,74.75 -16.92529,34.49584 -40.04001,61.08152 -72.62153,83.52658 -7.91886,5.45522 -11.63761,6.19916 -14.86335,2.97342 z m -115.5,-49.41645 c -11.85,-1.77464 -16.35653,-2.88368 -27.06461,-6.66051 -46.07734,-16.25187 -80.36437,-57.51207 -88.03436,-105.93845 -1.98365,-12.52423 -1.45408,-38.46615 1.01016,-49.48459 12.54815,-56.10712 56.5476,-97.40722 113.08881,-106.15086 12.76881,-1.97459 34.23108,-1.26548 47,1.55287 26.80428,5.91623 48.20567,17.65672 67.51977,37.04035 15.82376,15.88072 26.36807,32.82366 32.93623,52.923 5.02287,15.37056 6.46977,24.91005 6.46661,42.63464 -0.003,17.80214 -1.92437,29.25713 -7.61107,45.3805 -15.85166,44.94383 -55.06189,78.62369 -101.99544,87.60956 -11.60839,2.22254 -32.29066,2.74465 -43.3161,1.09349 z m 18.25,-11.22013 c 2.11497,-2.32641 2.25,-3.34067 2.25,-16.90013 v -14.42519 l 2.75,-0.56486 c 15.97555,-3.28144 27.09576,-7.94462 34.51138,-14.47212 3.13093,-2.75595 5.95006,-6.67336 8.46628,-11.76458 3.64398,-7.37309 3.77234,-7.99258 3.77234,-18.2057 0,-9.88791 -0.20867,-10.99676 -3.22085,-17.11537 -4.03292,-8.19202 -13.44634,-17.45668 -22.25495,-21.90325 -3.52219,-1.778 -12.95603,-5.46314 -20.96409,-8.18919 -27.52968,-9.37151 -40.69952,-18.09265 -46.36115,-30.70063 -5.75898,-12.82476 1.24225,-27.98372 16.15308,-34.97444 4.96874,-2.32952 6.85055,-2.64102 15.64796,-2.59024 8.48951,0.049 11.3705,0.52808 19.07321,3.17171 4.99027,1.71269 11.42257,4.49922 14.29401,6.19228 6.65703,3.92512 11.20859,4.06867 14.0602,0.44343 1.13992,-1.44917 2.07258,-3.43964 2.07258,-4.42327 0,-5.27108 -11.77579,-12.48268 -28.75,-17.60676 l -9.25,-2.79234 v -14.63653 c 0,-13.29318 -0.19022,-14.87835 -2.07258,-17.27138 -2.9279,-3.72223 -8.92694,-3.72223 -11.85484,0 -1.87477,2.38338 -2.07258,3.98404 -2.07258,16.7712 v 14.13634 l -6.02055,1.14416 c -14.54989,2.7651 -28.55553,13.15729 -35.09453,26.04017 -3.17979,6.26469 -3.38492,7.278 -3.38492,16.72105 0,9.40002 0.21652,10.48356 3.33713,16.70036 4.33675,8.63954 11.5141,16.60217 20.12458,22.3264 8.87563,5.90051 16.68422,9.4062 34.40763,15.4474 7.88312,2.68704 16.31243,5.88311 18.7318,7.10238 15.78956,7.95729 22.09402,22.49939 15.92492,36.73296 -5.37404,12.39915 -20.95086,19.18737 -44.1161,19.22536 -13.34553,0.0219 -23.2632,-2.3539 -35.40996,-8.48247 -4.95,-2.49749 -10.096,-4.53173 -11.43555,-4.52053 -3.4213,0.0286 -7.06445,3.76235 -7.06445,7.24013 0,3.99828 3.26288,6.88862 13.10652,11.61005 10.2856,4.93342 20.14829,7.92597 29.39348,8.9186 l 7,0.75158 0.5,14.60103 c 0.52242,15.25565 1.07769,17.17976 5.46528,18.93813 2.83461,1.13599 5.64447,0.22848 8.28472,-2.67574 z m -98.25,-284.346399 c -17.44572,-4.74134 -17.38638,-4.71612 -18.13637,-7.70433 -0.80882,-3.2226 2.57621,-32.87058 4.22754,-37.0271 1.46891,-3.69738 5.22859,-5.14437 8.95498,-3.44652 3.23122,1.47224 3.86708,4.74778 2.705,13.93431 -0.53758,4.24964 -0.87929,7.84883 -0.75937,7.9982 0.11993,0.14937 6.13895,-2.61034 13.37561,-6.1327 45.15159,-21.97698 96.06456,-26.42977 143.95929,-12.59052 13.89885,4.01609 23.24704,7.80239 37.66174,15.25416 13.41615,6.93555 15.71128,9.42209 13.31382,14.42421 -2.68142,5.59461 -5.07219,5.27064 -21.41307,-2.90166 -16.82284,-8.41333 -31.91534,-13.66871 -50.32079,-17.52226 -11.20418,-2.34582 -14.90204,-2.64074 -34.06838,-2.71712 -22.56146,-0.0899 -28.18725,0.52509 -46.5,5.08338 -12.8646,3.20217 -26.4243,8.28593 -39,14.62174 l -10,5.03815 6,1.82193 c 3.3,1.00207 6.52984,1.82805 7.17742,1.83552 1.68601,0.0194 5.32258,4.93458 5.32258,7.1939 0,2.45697 -4.37233,6.846309 -6.70455,6.730639 -0.9875,-0.049 -8.09545,-1.801249 -15.79545,-3.893929 z"
       id="path1" />
  </g>
</svg>
